Coordinates
version=1
nRows=29
nColumns=38
inDegrees=no

Units are S.I. units (second, meters, Newtons, ...)
If the header above contains a line with 'inDegrees', this indicates whether rotational values are in degrees (yes) or radians (no).

endheader
time	pelvis_tilt	pelvis_list	pelvis_rotation	pelvis_tx	pelvis_ty	pelvis_tz	hip_flexion_r	hip_adduction_r	hip_rotation_r	knee_angle_r	ankle_angle_r	subtalar_angle_r	mtp_angle_r	hip_flexion_l	hip_adduction_l	hip_rotation_l	knee_angle_l	ankle_angle_l	subtalar_angle_l	mtp_angle_l	lumbar_extension	lumbar_bending	lumbar_rotation	arm_flex_r	arm_add_r	arm_rot_r	elbow_flex_r	pro_sup_r	wrist_flex_r	wrist_dev_r	arm_flex_l	arm_add_l	arm_rot_l	elbow_flex_l	pro_sup_l	wrist_flex_l	wrist_dev_l
2.985	-0.0326929	-0.0699247	-0.00293274	1.296	0.973002	-0.485512	0.254522	0.121103	0.0788291	0.379748	0.246683	-0.0673471	-0.0230796	0.394268	-0.1248	0.0446703	1.28322	0.0294205	0.0413843	-0.0251533	-0.143655	0.126301	0.033272	-0.151054	-0.0999749	-0.137461	0.843657	1.12269	0.00139679	-0.000244118	-0.170268	-0.0732519	-0.0153929	0.74336	1.33149	0.00236563	-0.0017668
2.99	-0.0306647	-0.0681964	-0.0027936	1.30165	0.974087	-0.485189	0.241456	0.119839	0.0822771	0.371689	0.248906	-0.0665804	-0.0230796	0.406543	-0.124505	0.0419397	1.27908	0.0373745	0.0414959	-0.0251533	-0.146724	0.123327	0.0352983	-0.145275	-0.10167	-0.136862	0.854727	1.12066	0.00139679	-0.000244118	-0.173912	-0.0733901	-0.0169483	0.733968	1.3328	0.00236563	-0.0017668
2.995	-0.0284901	-0.0662697	-0.00263167	1.3073	0.975167	-0.484886	0.228114	0.11831	0.0857934	0.363373	0.25094	-0.0659053	-0.0230796	0.418123	-0.123949	0.0388973	1.27323	0.0450178	0.0415396	-0.0251533	-0.149988	0.120144	0.037203	-0.139554	-0.103342	-0.136294	0.865962	1.11845	0.00139679	-0.000244118	-0.177656	-0.0736259	-0.0187115	0.725106	1.33436	0.00236563	-0.0017668
3	-0.026194	-0.0641507	-0.00244475	1.31294	0.976235	-0.484605	0.214544	0.11652	0.0893511	0.354837	0.252806	-0.0653072	-0.0230796	0.429026	-0.123119	0.0355764	1.26571	0.052341	0.0415082	-0.0251533	-0.153422	0.116759	0.0389873	-0.133896	-0.104996	-0.135747	0.87736	1.11607	0.00139679	-0.000244118	-0.181488	-0.0739549	-0.020675	0.716769	1.3362	0.00236563	-0.0017668
3.005	-0.0238037	-0.06185	-0.0022349	1.31857	0.977283	-0.484344	0.200796	0.114476	0.0929228	0.346118	0.254525	-0.0647653	-0.0230796	0.439273	-0.122008	0.0320108	1.25657	0.059345	0.0413956	-0.0251533	-0.156997	0.113184	0.040658	-0.128307	-0.106637	-0.135209	0.888918	1.11354	0.00139679	-0.000244118	-0.185395	-0.0743725	-0.0228274	0.708943	1.33835	0.00236563	-0.0017668
3.01	-0.0213492	-0.0593822	-0.00200798	1.3242	0.978306	-0.484104	0.186925	0.11219	0.0964812	0.337255	0.256117	-0.0642548	-0.0230796	0.448884	-0.120612	0.028235	1.24587	0.0660376	0.0411971	-0.0251533	-0.16068	0.109435	0.0422267	-0.122794	-0.108272	-0.134673	0.900626	1.11088	0.00139679	-0.000244118	-0.189362	-0.074874	-0.0251524	0.701613	1.34081	0.00236563	-0.0017668
3.015	-0.0188656	-0.0567655	-0.0017732	1.32982	0.979296	-0.483884	0.172992	0.109678	0.1	0.328287	0.257604	-0.0637492	-0.0230796	0.457886	-0.118935	0.0242845	1.23364	0.07243	0.0409085	-0.0251533	-0.164433	0.105529	0.0437094	-0.117363	-0.109908	-0.134133	0.912475	1.10815	0.00139679	-0.000244118	-0.193374	-0.0754538	-0.0276322	0.694758	1.34357	0.00236563	-0.0017668
3.02	-0.0163903	-0.0540202	-0.00154197	1.33544	0.980247	-0.483682	0.159061	0.10696	0.103455	0.319254	0.259006	-0.0632231	-0.0230796	0.466304	-0.116984	0.0201948	1.21992	0.0785333	0.0405257	-0.0251533	-0.168214	0.101489	0.0451244	-0.112017	-0.111551	-0.133587	0.924449	1.10539	0.00139679	-0.000244118	-0.197416	-0.0761057	-0.0302431	0.688356	1.3466	0.00236563	-0.0017668
3.025	-0.0139607	-0.0511677	-0.00132707	1.34105	0.981151	-0.483497	0.145193	0.104058	0.106826	0.310194	0.260342	-0.0626536	-0.0230796	0.47416	-0.11477	0.0160015	1.20473	0.0843548	0.040044	-0.0251533	-0.171983	0.097338	0.0464919	-0.106761	-0.113212	-0.133028	0.936533	1.10262	0.00139679	-0.000244118	-0.201473	-0.0768228	-0.0329558	0.68238	1.34984	0.00236563	-0.0017668
3.03	-0.0116126	-0.0482301	-0.00114162	1.34665	0.982004	-0.483329	0.131444	0.100994	0.110093	0.301139	0.261631	-0.0620222	-0.0230796	0.48147	-0.112305	0.0117398	1.18808	0.0898958	0.0394578	-0.0251533	-0.175699	0.0931009	0.0478323	-0.101598	-0.114901	-0.132452	0.948706	1.09987	0.00139679	-0.000244118	-0.20553	-0.0775972	-0.0357397	0.676803	1.3532	0.00236563	-0.0017668
3.035	-0.00937736	-0.0452295	-0.000997905	1.35225	0.982799	-0.483178	0.117866	0.0977919	0.113244	0.292119	0.262886	-0.0613144	-0.0230796	0.488243	-0.109605	0.00744433	1.16997	0.0951484	0.0387597	-0.0251533	-0.179324	0.0888048	0.0491653	-0.0965307	-0.116627	-0.131856	0.960948	1.09718	0.00139679	-0.000244118	-0.209575	-0.0784183	-0.0385719	0.671599	1.35665	0.00236563	-0.0017668
3.04	-0.00728391	-0.0421896	-0.000907026	1.35785	0.983532	-0.483043	0.104499	0.0944775	0.116268	0.283155	0.26412	-0.0605216	-0.0230796	0.494478	-0.106689	0.00314908	1.15041	0.100095	0.0379415	-0.0251533	-0.182825	0.0844786	0.0505096	-0.0915591	-0.118402	-0.131236	0.973235	1.09456	0.00139679	-0.000244118	-0.213595	-0.0792739	-0.0414315	0.666739	1.36012	0.00236563	-0.0017668
3.045	-0.0053584	-0.0391353	-0.00087868	1.36344	0.984199	-0.482925	0.0913809	0.0910792	0.119161	0.274264	0.265339	-0.0596415	-0.0230796	0.500172	-0.10358	-0.00111195	1.12938	0.104708	0.0369943	-0.0251533	-0.186169	0.0801538	0.0518819	-0.0866832	-0.120237	-0.13059	0.98554	1.09204	0.00139679	-0.000244118	-0.217581	-0.0801504	-0.0443001	0.662198	1.36357	0.00236563	-0.0017668
3.05	-0.00362225	-0.0360938	-0.000920711	1.36903	0.984796	-0.482824	0.0785383	0.0876282	0.121925	0.265459	0.266544	-0.0586771	-0.0230796	0.505315	-0.100305	-0.00530439	1.10685	0.108952	0.0359095	-0.0251533	-0.189328	0.0758645	0.053297	-0.0819014	-0.122143	-0.129916	0.997838	1.08964	0.00139679	-0.000244118	-0.221525	-0.0810328	-0.0471671	0.65795	1.36697	0.00236563	-0.0017668
3.055	-0.002094	-0.0330951	-0.0010391	1.37463	0.985319	-0.48274	0.0659926	0.0841605	0.124563	0.256747	0.267731	-0.0576378	-0.0230796	0.509895	-0.0968989	-0.0093924	1.08283	0.112785	0.0346805	-0.0251533	-0.192278	0.0716476	0.0547676	-0.0772108	-0.124128	-0.12921	1.0101	1.08738	0.00139679	-0.000244118	-0.225421	-0.0819057	-0.0500212	0.653973	1.37029	0.00236563	-0.0017668
3.06	-0.00078914	-0.030172	-0.00123788	1.38022	0.985766	-0.482673	0.0537603	0.0807164	0.127089	0.248132	0.268892	-0.0565388	-0.0230796	0.513904	-0.0933991	-0.0133376	1.05729	0.116168	0.0333044	-0.0251533	-0.194999	0.0675429	0.0563042	-0.0726072	-0.126202	-0.128467	1.0223	1.08523	0.00139679	-0.000244118	-0.229265	-0.0827548	-0.052848	0.650248	1.37345	0.00236563	-0.0017668
3.065	0.000281464	-0.0273593	-0.0015191	1.38582	0.986135	-0.482622	0.0418519	0.0773394	0.129514	0.239619	0.270014	-0.0553982	-0.0230796	0.517335	-0.0898478	-0.0170983	1.03024	0.119064	0.0317817	-0.0251533	-0.197473	0.0635911	0.0579147	-0.0680846	-0.12837	-0.12768	1.03441	1.08317	0.00139679	-0.000244118	-0.233055	-0.0835665	-0.0556342	0.646758	1.37639	0.00236563	-0.0017668
3.07	0.00111449	-0.024691	-0.00188295	1.39143	0.986423	-0.482588	0.0302702	0.0740723	0.131857	0.231211	0.271087	-0.0542333	-0.0230796	0.520182	-0.086287	-0.0206301	1.00171	0.121446	0.0301168	-0.0251533	-0.199694	0.0598309	0.0596043	-0.0636347	-0.130638	-0.126844	1.04641	1.08121	0.00139679	-0.000244118	-0.236789	-0.0843262	-0.058378	0.643488	1.37909	0.00236563	-0.0017668
3.075	0.00171158	-0.0221987	-0.00232867	1.39704	0.986629	-0.482569	0.0190141	0.0709546	0.134132	0.222915	0.2721	-0.053058	-0.0230796	0.522444	-0.0827552	-0.0238857	0.971729	0.123301	0.0283159	-0.0251533	-0.201662	0.0562967	0.0613756	-0.059247	-0.133006	-0.125956	1.05827	1.07937	0.00139679	-0.000244118	-0.240464	-0.0850194	-0.0610843	0.640427	1.38152	0.00236563	-0.0017668
3.08	0.0020775	-0.0199081	-0.00285571	1.40267	0.986753	-0.482564	0.00808276	0.0680178	0.136355	0.214744	0.273053	-0.051881	-0.0230796	0.524129	-0.0792843	-0.0268175	0.940356	0.12463	0.0263849	-0.0251533	-0.203379	0.0530152	0.0632294	-0.0549093	-0.135476	-0.125012	1.06997	1.07764	0.00139679	-0.000244118	-0.24408	-0.0856315	-0.0637611	0.637568	1.38368	0.00236563	-0.0017668
3.085	0.00221961	-0.0178345	-0.00346487	1.4083	0.986793	-0.482574	-0.00252366	0.0652794	0.138538	0.206713	0.273953	-0.050701	-0.0230796	0.525249	-0.0758941	-0.0293801	0.907666	0.125446	0.0243255	-0.0251533	-0.204852	0.0500009	0.0651646	-0.0506078	-0.138045	-0.124007	1.08148	1.07608	0.00139679	-0.000244118	-0.247635	-0.0861471	-0.0664245	0.634901	1.38562	0.00236563	-0.0017668
3.09	0.00214246	-0.0159813	-0.00415979	1.41393	0.986749	-0.482597	-0.0127972	0.062741	0.140692	0.198847	0.27482	-0.0495079	-0.0230796	0.525831	-0.072591	-0.0315334	0.873751	0.125771	0.0221322	-0.0251533	-0.206085	0.0472546	0.0671802	-0.0463284	-0.140714	-0.122937	1.09279	1.07469	0.00139679	-0.000244118	-0.251127	-0.0865503	-0.0690905	0.632421	1.38735	0.00236563	-0.0017668
3.095	0.00184563	-0.0143394	-0.00494769	1.41958	0.98662	-0.482633	-0.0227204	0.0603877	0.142825	0.191178	0.275686	-0.0482824	-0.0230796	0.525909	-0.069369	-0.0332445	0.838713	0.125632	0.0197907	-0.0251533	-0.207079	0.0447638	0.0692756	-0.0420573	-0.143482	-0.121794	1.10389	1.07348	0.00139679	-0.000244118	-0.254556	-0.0868248	-0.0717741	0.630123	1.3889	0.00236563	-0.0017668
3.1	0.00132612	-0.0128898	-0.00583868	1.42524	0.986406	-0.482682	-0.032271	0.0581917	0.144944	0.183738	0.276591	-0.0469983	-0.0230796	0.525528	-0.0662138	-0.034489	0.802664	0.125056	0.0172792	-0.0251533	-0.207831	0.0425049	0.071451	-0.0377808	-0.14635	-0.120568	1.11477	1.07246	0.00139679	-0.000244118	-0.257921	-0.0869535	-0.0744944	0.628003	1.39031	0.00236563	-0.0017668
3.105	0.000579975	-0.0116138	-0.00684432	1.4309	0.986106	-0.482744	-0.0414264	0.0561268	0.147058	0.176563	0.277573	-0.0456311	-0.0230796	0.524734	-0.0631168	-0.035248	0.765729	0.124073	0.0145765	-0.0251533	-0.208339	0.0404544	0.0737078	-0.0334861	-0.149318	-0.11925	1.1254	1.07161	0.00139679	-0.000244118	-0.261221	-0.0869215	-0.0772659	0.626057	1.3916	0.00236563	-0.0017668
3.11	-0.000388811	-0.0105111	-0.00797392	1.43657	0.98572	-0.482817	-0.0501779	0.0541918	0.149182	0.169679	0.278656	-0.0441728	-0.0230796	0.523571	-0.0600975	-0.0355035	0.72804	0.122716	0.0116774	-0.0251533	-0.20861	0.0386056	0.0760479	-0.0291603	-0.15238	-0.117825	1.1358	1.07091	0.00139679	-0.000244118	-0.264458	-0.0867186	-0.0800958	0.624286	1.39279	0.00236563	-0.0017668
3.115	-0.00155685	-0.0095975	-0.0092308	1.44225	0.985253	-0.482898	-0.0585479	0.0524083	0.151331	0.163098	0.279839	-0.0426272	-0.0230796	0.522062	-0.0571995	-0.0352361	0.689741	0.121022	0.00859374	-0.0251533	-0.208671	0.0369678	0.0784684	-0.0247902	-0.155528	-0.116279	1.14594	1.07031	0.00139679	-0.000244118	-0.267633	-0.0863405	-0.0829869	0.62269	1.39386	0.00236563	-0.0017668
3.12	-0.00287511	-0.00889642	-0.0106111	1.44795	0.984709	-0.482984	-0.0665982	0.0508076	0.153513	0.156816	0.281113	-0.0410002	-0.0230796	0.520202	-0.0544768	-0.0344275	0.650981	0.11903	0.00534792	-0.0251533	-0.208574	0.035557	0.0809588	-0.0203629	-0.158748	-0.114597	1.15581	1.06981	0.00139679	-0.000244118	-0.27075	-0.0857868	-0.0859452	0.621274	1.39482	0.00236563	-0.0017668
3.125	-0.00427601	-0.00843062	-0.0121055	1.45365	0.984095	-0.483071	-0.0744197	0.0494208	0.155731	0.150818	0.282456	-0.0392955	-0.0230796	0.517962	-0.0519837	-0.0330645	0.611914	0.116783	0.00196847	-0.0251533	-0.20839	0.0343885	0.0835019	-0.0158669	-0.162024	-0.112769	1.1654	1.06938	0.00139679	-0.000244118	-0.273814	-0.0850608	-0.0889743	0.620043	1.39569	0.00236563	-0.0017668
